<?xml version="1.0" encoding="utf-8"?>
<!-- Generator: Adobe Illustrator 16.0.0, SVG Export Plug-In . SVG Version: 6.00 Build 0)  -->
<!DOCTYPE svg PUBLIC "-//W3C//DTD SVG 1.1//EN" "http://www.w3.org/Graphics/SVG/1.1/DTD/svg11.dtd">
<svg version="1.1" id="Layer_1" xmlns="http://www.w3.org/2000/svg" xmlns:xlink="http://www.w3.org/1999/xlink" x="0px" y="0px"
	 width="509px" height="106px" viewBox="0 0 509 106" style="enable-background:new 0 0 509 106;" xml:space="preserve">
<style type="text/css">
<![CDATA[
	.st0{fill:#FFFFFF;}
]]>
</style>
<g>
	<polygon class="st0" points="7.1,62.6 -0.9,54.5 52.6,1 106.1,54.5 98,62.6 52.6,17.6 	"/>
	<path class="st0" d="M61.7,66.2c0-0.5,0-1-0.1-1.4c-0.6-4.7-4.3-10.5-9.3-10.5c-4.9,0-8.6,5.8-9.3,10.5c-0.1,0.5-0.1,0.9-0.1,1.4
		c0,5.4,4,9.7,9.4,9.7C57.8,75.9,61.7,71.6,61.7,66.2z"/>
	<rect x="20" y="94" class="st0" width="63" height="12"/>
	<g>
		<path class="st0" d="M76,9.8v8.5l9,8.1v-20C85,2.5,82.2,0,78.4,0H70v7h3.9C75.1,7,76,8.5,76,9.8z"/>
	</g>
</g>
<g>
	<path class="st0" d="M161,48.1c0-2-1.1-2.9-2.9-2.9h-5.5V34H165c5.7,0,8.5,2.5,8.5,7.5v2.5c0,2.1-0.3,3.9-0.3,3.9h0.3
		c2.7-5.9,10.7-15.5,25.4-15.5c16,0,23.2,8.7,23.2,25.9v29.2c0,2,1.1,2.9,2.9,2.9h4.5v11.1h-11.9c-6,0-8.5-2.5-8.5-8.5V61.3
		c0-9.5-1.9-17-12.7-17c-10.4,0-18.7,6.8-21.4,16.6c-0.9,2.7-1.2,5.7-1.2,9.1v31.6h-13V48.1z"/>
	<path class="st0" d="M259.4,32.6c18.6-3.7,31.3,8.2,34.7,25.4c0.3,1.7,0.6,5.3,0.6,5.3l-48.3,9.6c3.6,14,15.4,20,27.2,17.6
		c11.4-2.3,15.3-8.9,15.3-8.9l7.3,7.9c0,0-5.3,8.9-21,12c-21,4.2-38.2-8.1-42.1-27.7C228.8,52.9,240.5,36.4,259.4,32.6z M280.2,56.6
		c-2.6-10.9-10.7-15.4-18.9-13.8c-9.7,1.9-16.4,9.4-16.2,20.8L280.2,56.6z"/>
	<path class="st0" d="M307.8,82.6c0,0,8,10,20.4,10c6.3,0,11.8-2.8,11.8-8.7c0-12.2-36.9-10.8-36.9-32.6c0-13,11.4-19,25.1-19
		c8.1,0,22.2,2.8,22.2,13.1v6.4h-11.6v-3.3c0-4-6-5.7-10.1-5.7c-7.6,0-12.6,2.7-12.6,8c0,12.8,36.9,10,36.9,32.6
		c0,12-10.7,19.8-24.8,19.8c-18,0-27-11.9-27-11.9L307.8,82.6z"/>
	<path class="st0" d="M367.3,44.5h-8.8V34h9.1V15.5h12.7V34h16.2v10.4h-16.2v31c0,13.5,9.3,15.2,14.3,15.2c1.9,0,3.1-0.3,3.1-0.3
		v11.5c0,0-1.7,0.3-4.5,0.3c-8.5,0-25.8-2.7-25.8-25.2V44.5z"/>
	<path class="st0" d="M414.9,48.1c0-2-1.1-2.9-2.9-2.9h-5.5V34h12.7c6,0,8.5,2.5,8.5,8.5v45c0,2,1.1,2.9,2.9,2.9h5.5v11.1h-12.7
		c-6,0-8.5-2.5-8.5-8.5V48.1z M415.1,7.3h11.6v13.5h-11.6V7.3z"/>
	<path class="st0" d="M475,32.9c19,0,33.5,18.4,33.5,37.7c0,19.4-15.4,32.6-34.4,32.6c-19,0-32.5-13.2-32.5-32.6
		C441.6,51.3,455.9,32.9,475,32.9z M474.1,92.6c12.1,0,21.9-8.7,21.9-22.1c0-13.2-8.9-27.1-21-27.1c-12,0-20.9,13.9-20.9,27.1
		C454,83.9,462.1,92.6,474.1,92.6z"/>
</g>
</svg>
